<?xml version="1.0" encoding="UTF-8" standalone="no"?>
<svg
   height="24px"
   viewBox="0 -960 960 960"
   width="24px"
   fill="#e3e3e3"
   version="1.1"
   id="svg1"
   sodipodi:docname="augmented-reality.svg"
   inkscape:version="1.4 (86a8ad7, 2024-10-11)"
   xmlns:inkscape="http://www.inkscape.org/namespaces/inkscape"
   xmlns:sodipodi="http://sodipodi.sourceforge.net/DTD/sodipodi-0.dtd"
   xmlns="http://www.w3.org/2000/svg"
   xmlns:svg="http://www.w3.org/2000/svg">
  <defs
     id="defs1" />
  <sodipodi:namedview
     id="namedview1"
     pagecolor="#ffffff"
     bordercolor="#000000"
     borderopacity="0.25"
     inkscape:showpageshadow="2"
     inkscape:pageopacity="0.0"
     inkscape:pagecheckerboard="0"
     inkscape:deskcolor="#d1d1d1"
     inkscape:zoom="3.0530808"
     inkscape:cx="-12.282675"
     inkscape:cy="19.160973"
     inkscape:window-width="1920"
     inkscape:window-height="1009"
     inkscape:window-x="-8"
     inkscape:window-y="-8"
     inkscape:window-maximized="1"
     inkscape:current-layer="svg1" />
  <path
     d="M440-181 240-296q-19-11-29.5-29T200-365v-230q0-22 10.5-40t29.5-29l200-115q19-11 40-11t40 11l200 115q19 11 29.5 29t10.5 40v230q0 22-10.5 40T720-296L520-181q-19 11-40 11t-40-11Zm0-92v-184l-160-93v185l160 92Zm80 0 160-92v-185l-160 93v184ZM120-640q-17 0-28.5-11.5T80-680v-120q0-33 23.5-56.5T160-880h120q17 0 28.5 11.5T320-840q0 17-11.5 28.5T280-800H160v120q0 17-11.5 28.5T120-640Zm40 560q-33 0-56.5-23.5T80-160v-120q0-17 11.5-28.5T120-320q17 0 28.5 11.5T160-280v120h120q17 0 28.5 11.5T320-120q0 17-11.5 28.5T280-80H160Zm640 0H680q-17 0-28.5-11.5T640-120q0-17 11.5-28.5T680-160h120v-120q0-17 11.5-28.5T840-320q17 0 28.5 11.5T880-280v120q0 33-23.5 56.5T800-80Zm0-600v-120H680q-17 0-28.5-11.5T640-840q0-17 11.5-28.5T680-880h120q33 0 56.5 23.5T880-800v120q0 17-11.5 28.5T840-640q-17 0-28.5-11.5T800-680ZM480-526l158-93-158-91-158 91 158 93Zm0 45Zm0-45Zm40 69Zm-80 0Z"
     id="path1"
     style="fill:#fdf6e3"
     inkscape:export-filename="favicon.png"
     inkscape:export-xdpi="96"
     inkscape:export-ydpi="96" />
</svg>
